/* XPM */
static const char* pipewalker_xpm[] = {
"32 32 284 2",
"  	c None",
". 	c #194CB2",
"+ 	c #194CB1",
"@ 	c #194CB0",
"# 	c #194CAF",
"$ 	c #1A4EAF",
"% 	c #1B50B0",
"& 	c #194CAD",
"* 	c #194CAC",
"= 	c #75A8EC",
"- 	c #6BA3EC",
"; 	c #5991E2",
"> 	c #528ADD",
", 	c #68A4EF",
"' 	c #609BE9",
") 	c #558FE1",
"! 	c #376DCC",
"~ 	c #2D62C5",
"{ 	c #7BAEEF",
"] 	c #699DE6",
"^ 	c #6599E4",
"/ 	c #6196E4",
"( 	c #6195E3",
"_ 	c #6094E2",
": 	c #5F94E3",
"< 	c #5E92E1",
"[ 	c #5D92E2",
"} 	c #5C91E1",
"| 	c #5B91E1",
"1 	c #5A8FE1",
"2 	c #598FE0",
"3 	c #578EDF",
"4 	c #568CDF",
"5 	c #558BDE",
"6 	c #548ADE",
"7 	c #538ADD",
"8 	c #5189DD",
"9 	c #4D84DB",
"0 	c #2F64C5",
"a 	c #609BE8",
"b 	c #366DCC",
"c 	c #2C62C5",
"d 	c #73A6EC",
"e 	c #5185DB",
"f 	c #487CD5",
"g 	c #366ACC",
"h 	c #3569CC",
"i 	c #3469CB",
"j 	c #3568CB",
"k 	c #3468CB",
"l 	c #3367CB",
"m 	c #3367CA",
"n 	c #3267CA",
"o 	c #3267C9",
"p 	c #3266C9",
"q 	c #3166C9",
"r 	c #3065C8",
"s 	c #3165C8",
"t 	c #477ED8",
"u 	c #467DD8",
"v 	c #2E63C7",
"w 	c #5D98E8",
"x 	c #538EE1",
"y 	c #356CCB",
"z 	c #2B62C4",
"A 	c #72A6EC",
"B 	c #4B7FD7",
"C 	c #4174D2",
"D 	c #285BC4",
"E 	c #2C61C3",
"F 	c #4A81D9",
"G 	c #356ECE",
"H 	c #2257BD",
"I 	c #70A4EB",
"J 	c #4478D4",
"K 	c #194CAB",
"L 	c #5992E2",
"M 	c #4E86DC",
"N 	c #2D63C6",
"O 	c #508BDF",
"P 	c #346BCB",
"Q 	c #6FA3EB",
"R 	c #4377D3",
"S 	c #5891E2",
"T 	c #4D85DB",
"U 	c #6EA3EA",
"V 	c #4277D3",
"W 	c #568FE2",
"X 	c #4C84DA",
"Y 	c #4E8ADF",
"Z 	c #336ACA",
"` 	c #6DA2EA",
" .	c #4276D3",
"..	c #4A84DA",
"+.	c #4E8ADE",
"@.	c #6BA0E9",
"#.	c #4176D2",
"$.	c #4983D9",
"%.	c #4C88DE",
"&.	c #3269CA",
"*.	c #4175D2",
"=.	c #194CAE",
"-.	c #508ADF",
";.	c #4881D9",
">.	c #2B61C5",
",.	c #4B87DE",
"'.	c #3169C9",
").	c #699EE8",
"!.	c #4074D2",
"~.	c #437BD6",
"{.	c #3D76D2",
"].	c #2B60C4",
"^.	c #4986DD",
"/.	c #3068C9",
"(.	c #689EE9",
"_.	c #3F74D2",
":.	c #5B92E1",
"<.	c #578FDF",
"[.	c #5189DC",
"}.	c #4F87DC",
"|.	c #4B84DA",
"1.	c #4982DA",
"2.	c #4781D9",
"3.	c #3971CF",
"4.	c #285EC2",
"5.	c #4985DD",
"6.	c #3068C8",
"7.	c #669DE7",
"8.	c #3F74D1",
"9.	c #4B82D8",
"0.	c #447BD5",
"a.	c #3268C8",
"b.	c #2F64C7",
"c.	c #2E63C6",
"d.	c #2C61C5",
"e.	c #2C61C4",
"f.	c #2A60C4",
"g.	c #285DC2",
"h.	c #4784DC",
"i.	c #2F67C8",
"j.	c #659CE7",
"k.	c #3E74D1",
"l.	c #487FD6",
"m.	c #3F76D1",
"n.	c #295DC1",
"o.	c #2458C0",
"p.	c #2458BF",
"q.	c #4683DC",
"r.	c #649BE6",
"s.	c #3D73D0",
"t.	c #447CD5",
"u.	c #3A70CE",
"v.	c #4582DB",
"w.	c #2E67C7",
"x.	c #639AE6",
"y.	c #3A6FCE",
"z.	c #4481DB",
"A.	c #2E66C7",
"B.	c #6198E5",
"C.	c #3C72D0",
"D.	c #437AD4",
"E.	c #386FCD",
"F.	c #4280DA",
"G.	c #2D65C6",
"H.	c #6098E5",
"I.	c #3C72CF",
"J.	c #437DD6",
"K.	c #366FCC",
"L.	c #346BCA",
"M.	c #3269C9",
"N.	c #326AC9",
"O.	c #3A74D1",
"P.	c #3972D1",
"Q.	c #4180DA",
"R.	c #5F97E5",
"S.	c #3B71CF",
"T.	c #4279D4",
"U.	c #376ECD",
"V.	c #407ED9",
"W.	c #2C64C6",
"X.	c #5E97E5",
"Y.	c #3B71CE",
"Z.	c #4179D3",
"`.	c #376DCD",
" +	c #4781D8",
".+	c #4079D3",
"++	c #3067C8",
"@+	c #2B61C3",
"#+	c #3973D1",
"$+	c #3872D1",
"%+	c #285EC1",
"&+	c #3F7ED9",
"*+	c #2B64C6",
"=+	c #5C95E4",
"-+	c #4078D3",
";+	c #447ED7",
">+	c #3B74D0",
",+	c #1C50AD",
"'+	c #3B77D4",
")+	c #275EC1",
"!+	c #3D7CD9",
"~+	c #2A64C5",
"{+	c #5C94E4",
"]+	c #437DD7",
"^+	c #3A73D0",
"/+	c #194CAA",
"(+	c #3D79D4",
"_+	c #275DC0",
":+	c #3C7CD8",
"<+	c #2A63C5",
"[+	c #5993E3",
"}+	c #396FCE",
"|+	c #3E77D2",
"1+	c #427CD6",
"2+	c #3973D0",
"3+	c #265DC0",
"4+	c #3B7AD8",
"5+	c #2963C4",
"6+	c #386ECD",
"7+	c #3E76D2",
"8+	c #417CD6",
"9+	c #3972CF",
"0+	c #3B77D3",
"a+	c #3A7AD8",
"b+	c #2962C4",
"c+	c #407BD6",
"d+	c #3771CF",
"e+	c #194CA9",
"f+	c #3976D3",
"g+	c #255CBF",
"h+	c #3878D7",
"i+	c #2862C3",
"j+	c #5790E2",
"k+	c #3C75D1",
"l+	c #336BCA",
"m+	c #3F7AD5",
"n+	c #3975D3",
"o+	c #2861C3",
"p+	c #356DCC",
"q+	c #3B76D3",
"r+	c #356FCE",
"s+	c #3774D2",
"t+	c #2A64C4",
"u+	c #3271D1",
"v+	c #2761C3",
"w+	c #4179D4",
"x+	c #2357BE",
"y+	c #3F7AD4",
"z+	c #4582DC",
"A+	c #3872CF",
"B+	c #336CCC",
"C+	c #2E69C9",
"D+	c #2F6BCC",
"E+	c #3373D4",
"F+	c #306ECF",
"G+	c #265FC3",
"H+	c #528DE0",
"I+	c #3F79D1",
"J+	c #3871D0",
"K+	c #3770CF",
"L+	c #3670CF",
"M+	c #2D65C7",
"N+	c #2A62C4",
"O+	c #1A4DA9",
"P+	c #2D68CA",
"Q+	c #2D69CA",
"R+	c #2C68C9",
"S+	c #2964C7",
"T+	c #2762C4",
"U+	c #2159BC",
"V+	c #5C98E7",
"W+	c #528CE0",
"X+	c #2B61C4",
"Y+	c #3168C9",
"Z+	c #2F68C8",
"`+	c #2E66C8",
" @	c #285FC2",
".@	c #2862C5",
"+@	c #2862C4",
"@@	c #245EC1",
"#@	c #194DAA",
"$@	c #194CA8",
"%@	c #194CA7",
"&@	c #194CA6",
"      . . . + + + + + @ @ @ @ @ # # # # # $ %     + & & & & & * ",
"    + = - - - - - - - - - - - - - - - - - ; > +   + , ' ) ! ~ * ",
"  + { ] ^ / ( _ : < [ } | 1 2 3 3 4 5 6 7 8 9 0 + + , a ) b c * ",
"  + d e f g h i j k l m m n o p q r s r o t u v + + , w x y z * ",
"  + A B C D + + + + + + + + + + + + + + E F t v + + + G , H + * ",
"  + I J C K                             & L M N +   + , O P +   ",
"  + Q R C +                             & S T N +   + , O P +   ",
"  + U V C +                             & W X ~ +   + , Y Z +   ",
"  + `  .C +                             & ) ..~ +   + , +.Z +   ",
"  + @.#.C +                             & x $.c +   + , %.&.+   ",
"  + @.*.C +       # # =.=.=.=.=.& & & & , -.;.>.+   + , ,.'.+   ",
"  + ).!.C +     * - - - - - - - - - - - - ~.{.].+   + , ^./.+   ",
"  + (._.C +   . - :.<.[.8 }.}.T T |.|.1.2.{.3.4.+   + , 5.6.+   ",
"  + 7.8.C +   . - 9.0.a.b.c.c.c.N ~ ~ d.e.f.g.+     + , h.i.+   ",
"  + j.k.C +   . - l.m.n.o.p.+ + + + + + + + +       + , q.i.+   ",
"  + r.s.C +   . - t.u.& *                           + , v.w.+   ",
"  + x.s.C +   . - 0.y.&       + + + + + + + +       + , z.A.+   ",
"  + B.C.C +   + - D.E.&     + + - - - - - - + +     + , F.G.+   ",
"  + H.I.C +   + - D.E.&   + + - J.K.L.M.N.O.P.+ +   + , Q.G.+   ",
"  + R.S.C +   + - T.U.*   + - M.M.M.M.M.M.M.M.M.+   + , V.W.+   ",
"  + X.Y.C +   + - Z.`.*   + -  +.++++ + @+#+$+%++   + , &+*++   ",
"  + =+u.C +   + - -+b *   + - ;+>++     ,+- '+)++   + , !+~++   ",
"  + {+u.C +   + - -+b *   + - ]+^++     /+- (+_++   + , :+<++   ",
"  + [+}+C +   + - |+y *   + - 1+2++     /+- '+3++   + , 4+5++   ",
"  + L 6+C +   + - 7+y K   + - 8+9++     /+- 0+3++   + , a+b++   ",
"  + S 6+C +   + - {.L.K   + - c+d++     e+- f+g++   + , h+i++   ",
"  + j+! C +   + - k+l+K   + - m+d++     e+- n+g++   + , h+o++   ",
"  + ) b C +   + - k+p+K.K G - q+r++     e+- s+t++ K + , u+v++   ",
"& + w+x++ K + + - |+9+y+- - z+A+B++     e+- s+C+D+- - E+F+G++   ",
"& w H+y e.K + . I+J+K+K+d+L+G M+N++     O+O.D+P+P+Q+R+S+T+U++   ",
"* V+W+y X+K +   + '.Y+6.Z+i.`+ @+         + ~+.@+@v+v+G+@@+     ",
"* * * * K K +     #@#@/+/+e+e+e+            $@%@%@%@%@%@&@      "};
