/* XPM */
static char *pipewalker_xpm[] = {
/* width height num_colors chars_per_pixel */
"    48    48      256            2",
/* colors */
"`` c #1c4ea4",
"`. c #6caaf4",
"`# c #3c7ed4",
"`a c #5496e4",
"`b c #2c66c4",
"`c c #5486dc",
"`d c None",
"`e c #6c9ee4",
"`f c #84baf4",
"`g c #3472cc",
"`h c #245abc",
"`i c #4c8adc",
"`j c #64a2ec",
"`k c #4c7ed4",
"`l c #7caeec",
"`m c #6496e4",
"`n c #548edc",
"`o c #4476d4",
"`p c #6492e4",
"`q c #1c56b4",
"`r c #4486dc",
"`s c #3c6ecc",
"`t c #3c7ad4",
"`u c #2462c4",
"`v c #5c8edc",
"`w c #2c6ecc",
"`x c #8cc2fc",
"`y c #74b2f4",
"`z c #447ed4",
"`A c #5c9eec",
"`B c #6ca6ec",
"`C c #3c72cc",
"`D c #2c5ac4",
"`E c #1c4eb4",
"`F c #74aaec",
"`G c #5c96e4",
"`H c #3466cc",
"`I c #7cb6f4",
"`J c #649ee4",
"`K c #8cbefc",
"`L c #245ebc",
"`M c #4c92e4",
"`N c #4c86dc",
"`O c #5492ec",
"`P c #5c92dc",
"`Q c #74aeec",
"`R c #1c52ac",
"`S c #3c82dc",
"`T c #2c6acc",
"`U c #6ca2ec",
"`V c #84befc",
"`W c #3476d4",
"`X c #4c8ee4",
"`Y c #4c82d4",
"`Z c #7cb2f4",
"`0 c #649ae4",
"`1 c #5492e4",
"`2 c #2456bc",
"`3 c #94c6fc",
"`4 c #4482dc",
"`5 c #74a6ec",
"`6 c #3c76d4",
"`7 c #5c9ae4",
"`8 c #1c4eac",
".` c #3c7edc",
".. c #5496ec",
".# c #2c66cc",
".a c #548adc",
".b c #6c9eec",
".c c #84bafc",
".d c #3472d4",
".e c #245ac4",
".f c #4c8ae4",
".g c #64a6ec",
".h c #7caef4",
".i c #548ee4",
".j c #447ad4",
".k c #1c56bc",
".l c #4486e4",
".m c #3c7adc",
".n c #2c62c4",
".o c #5c8ee4",
".p c #346ecc",
".q c #8cc6fc",
".r c #447edc",
".s c #6ca6f4",
".t c #3c72d4",
".u c #2c5ec4",
".v c #1c52b4",
".w c #74aaf4",
".x c #346acc",
".y c #84b6f4",
".z c #649eec",
".A c #245ec4",
".B c #5c92e4",
".C c #74aef4",
".D c #4c82dc",
".E c #649aec",
".F c #5c9aec",
".G c #000000",
".H c #000000",
".I c #000000",
".J c #000000",
".K c #000000",
".L c #000000",
".M c #000000",
".N c #000000",
".O c #000000",
".P c #000000",
".Q c #000000",
".R c #000000",
".S c #000000",
".T c #000000",
".U c #000000",
".V c #000000",
".W c #000000",
".X c #000000",
".Y c #000000",
".Z c #000000",
".0 c #000000",
".1 c #000000",
".2 c #000000",
".3 c #000000",
".4 c #000000",
".5 c #000000",
".6 c #000000",
".7 c #000000",
".8 c #000000",
"#` c #000000",
"#. c #000000",
"## c #000000",
"#a c #000000",
"#b c #000000",
"#c c #000000",
"#d c #000000",
"#e c #000000",
"#f c #000000",
"#g c #000000",
"#h c #000000",
"#i c #000000",
"#j c #000000",
"#k c #000000",
"#l c #000000",
"#m c #000000",
"#n c #000000",
"#o c #000000",
"#p c #000000",
"#q c #000000",
"#r c #000000",
"#s c #000000",
"#t c #000000",
"#u c #000000",
"#v c #000000",
"#w c #000000",
"#x c #000000",
"#y c #000000",
"#z c #000000",
"#A c #000000",
"#B c #000000",
"#C c #000000",
"#D c #000000",
"#E c #000000",
"#F c #000000",
"#G c #000000",
"#H c #000000",
"#I c #000000",
"#J c #000000",
"#K c #000000",
"#L c #000000",
"#M c #000000",
"#N c #000000",
"#O c #000000",
"#P c #000000",
"#Q c #000000",
"#R c #000000",
"#S c #000000",
"#T c #000000",
"#U c #000000",
"#V c #000000",
"#W c #000000",
"#X c #000000",
"#Y c #000000",
"#Z c #000000",
"#0 c #000000",
"#1 c #000000",
"#2 c #000000",
"#3 c #000000",
"#4 c #000000",
"#5 c #000000",
"#6 c #000000",
"#7 c #000000",
"#8 c #000000",
"a` c #000000",
"a. c #000000",
"a# c #000000",
"aa c #000000",
"ab c #000000",
"ac c #000000",
"ad c #000000",
"ae c #000000",
"af c #000000",
"ag c #000000",
"ah c #000000",
"ai c #000000",
"aj c #000000",
"ak c #000000",
"al c #000000",
"am c #000000",
"an c #000000",
"ao c #000000",
"ap c #000000",
"aq c #000000",
"ar c #000000",
"as c #000000",
"at c #000000",
"au c #000000",
"av c #000000",
"aw c #000000",
"ax c #000000",
"ay c #000000",
"az c #000000",
"aA c #000000",
"aB c #000000",
"aC c #000000",
"aD c #000000",
"aE c #000000",
"aF c #000000",
"aG c #000000",
"aH c #000000",
"aI c #000000",
"aJ c #000000",
"aK c #000000",
"aL c #000000",
"aM c #000000",
"aN c #000000",
"aO c #000000",
"aP c #000000",
"aQ c #000000",
"aR c #000000",
"aS c #000000",
"aT c #000000",
"aU c #000000",
"aV c #000000",
"aW c #000000",
"aX c #000000",
"aY c #000000",
"aZ c #000000",
"a0 c #000000",
"a1 c #000000",
"a2 c #000000",
"a3 c #000000",
"a4 c #000000",
"a5 c #000000",
"a6 c #000000",
"a7 c #000000",
"a8 c #000000",
/* pixels */
"`d`d`d`d`E`E`E`E`E`E`E`8`E`E`8`E`E`8`E`8`E`8`E`8`E`8`8`E`8`8`E`8.v`8`d`d`d`d`8`8`8`8`8`8`8`8`8`8",
"`d`d`E`E`3`3.q`x`3`x`x`K`V`K`V`f`V`f.c`f`I`I.y`I`I`Z`y`Z.C`y.w`G`n`n`E`8`d`d`E.s.F.i.D.D.p.u.k`8",
"`d`d`E.y`l.h`5`5`5`B`U`U`U`U`U`U`e.b.z.b.z.z.z`0.E`0.E`7`m`G`G.B.a`Y.n`8`d`d`8`B.E`n`N.D.p.n`2`E",
"`d`E.y`l`5`5`J`0`m`m`m`m`P`p`P.B`P.B`P`P.o`v.o`n.i.a.a.a.a.a.a.a`N.j`b.e`8`d`8.s`A`n.D`4.p.n`2`8",
"`d`E.y`F`U`U`p`v.a`c`N`c`c`N`c`Y.D.D.D.D`Y.D`Y.D`k.D`k`k.r`k`4.D`k.j.n`2`E`d`8`B.F.i`N`Y.p.n`2`8",
"`d`E`Z`5`m`0`c.j`o.x.x.x`H`H`H`H.x`H.x`H`H`H.#`H`H`b`H.#`H`H`s`z.r.j.n.e`8`d`E`j`7.i`Y`4.x.n`2`8",
"`d`E.y`5`m`m`k`6.x`D`h`D`h.e`D`h.e`h.e`h.e`h.e`h.e`2.e`2.e.n`C.D`z`o.n`2`E`d`8`8.D`6.p`s`2`8`8`8",
"`d`E`Z`5`G`m.j`s.u`E`8`E`8`8`E`8`E`8`8`E`8`8`8`E`8`8`8`8`8.e`6`N.D.j.n.e`8`d`d`8`G.i`z.D.x`u`E`d",
"`d`E`Z`5`m`G`o.x`E`8`d`d`d`d`d`d`d`d`d`d`d`d`d`d`d`d`d`d`8`8`.`P`N.j.n`2`E`d`d`8`G.f`Y.r.x.n`E`d",
"`d`E`Z`U`p`G`o.x`8`d`d`d`d`d`d`d`d`d`d`d`d`d`d`d`d`d`d`d`d`8.s.B.D.j.n`2`8`d`d`8.B.f`4`4.x.u`E`d",
"`d`E`Z`U`m`P`o`H`E`d`d`d`d`d`d`d`d`d`d`d`d`d`d`d`d`d`d`d`d`8`B`1`N.j.n`2`E`d`d`8...a`4`k.x.n`8`d",
"`d`E`Z`U`G`m`o.x`E`d`d`d`d`d`d`d`d`d`d`d`d`d`d`d`d`d`d`d`d`E`B.i`N.j.n`2`8`d`d`8`1`i`z`z.x`L`E`d",
"`d`E`l`U`P.B`o`H`E`d`d`d`d`d`d`d`d`d`d`d`d`d`d`d`d`d`d`d`d`8.s`n`N`6.n`2`8`d`d`8.B.f`z.r.x.n`E`d",
"`d`E`l`U.B`p`6.x`8`d`d`d`d`d`d`d`d`d`d`d`d`d`d`d`d`d`d`d`d`8.s`n`N`o.n`2`E`d`d`8`1.f`z`z.x.A`E`d",
"`d`E.C`U`P`P`o`H`E`d`d`d`d`d`d`d`d`d`d`d`d`d`d`d`d`d`d`d`d`8.F.i`4`6.n.k`8`d`d`8`1`N.r`z.x.n`8`d",
"`d`E`l`e.B.B`o`H`8`d`d`d`d`d`E`E`8`E`8`E`8`E`8`E`8`8`E`8`8`j`G.a`Y`6.n`2`8`d`d`8.i.f`z`z`T.u`E`d",
"`d`E`Q.b.B`P`6`H`E`d`d`d`E`8`Z`y.C.C.C.C.w`.`F`.`.`B`B.g.F`G`G`N.r`6.n`2`8`d`d`8.i`N`z`z.#.u`8`d",
"`d`E.w`e`P.o`C`H`E`d`d`d`8`U`0`m`7`m`G`G`G.B.B`1.B.i.i.i.i.a`N.j`6.p.u`2`8`d`d`8.i`r.`.j`T.u`E`d",
"`d`E`Q.z.o`P`6`H`8`d`d`E`U.z.B`n`n.a.a.a`N`N`i`N`N`N`N`Y.D`4.r`6`C.x.A`2`8`d`d`8`X`N.j`#`H`L`E`d",
"`d`E`F.b`P.o`6`H`E`d`d`E`U`0`n`N.D.D`z.j`z.j.j.j.j`o`t`o`t`6`6.p.x`b`h`2`8`d`d`8.i`r.j`t.x.A`E`d",
"`d`E`F`J.i`v`6`H`8`d`d`E`U`G.D.j`C`6`H`b.n.n.n.n.n.n.n.n.n.u.n.u.u`h`2`8`d`d`d`8.f`4.j.m`b.u`8`d",
"`d`E`F.E`v.i`6`H`8`d`d`E`U`G`k`6`s.p.u`2.e`h`2.e`2`2`2`2`2`2`2`2.k`2`8`8`d`d`d`8`X`4`t.j`T`L`E`d",
"`d`E`5`J.i`v`C`H`E`d`d`E`j`G`z`C`H`H`h`8`8`8`E`8`8`8`8`8`8`8`8`8`8```d`d`d`d`d`8.f`N`t`t`H.A`E`d",
"`d`E`B`0`n.o`C.#`E`d`d`E.b`G.j`C`b.n`8`8`d`d`d`d`d`d`d`d`d`d`d`d`d`d`d`d`d`d`d`8.f`4`t`t`b`L`E`d",
"`d`8`B.E`v`n.t`H`8`d`d`E.z`G.j`s.n`H`8`d`d`d`d`d`d`d`d`d`d`d`d`d`d`d`d`d`d`d`d`8`i`4`6`t.#`D`E`d",
"`d`E`B`0.i.a`C`H`E`d`d`E.z.B.j`s.n.n`E`d`d`d`d`8`8`8`8`8`8`8`8`8`8`E`8`d`d`d`d`8.f`4`6`t`b`L`E`d",
"`d`E`B`0.a.i`C.#`E`d`d`E.z.B.j.d.n.n`8`d`d`8`8.B...B`O`1`1.i.i.i.f`4`6`8`8`d`d`8.l`4`6`6`b.e`E`d",
"`d`8`B`m.a.a.t`H`8`d`d`E.z`1.j`s.#.n`E`d`d`8.z.i.i`i.a.f`N.f`N`N`4`z`6`L`8`d`d`8`i.``6`6`b`L`E`d",
"`d`E`U.F.a`n`C.n`E`d`d`E`J.B`t`s.n.n`8`d`8.z..`i`N`N`z`z.r`z`z.`.j`t`g.u`2`8`d`8`r`4`6`6`b.e`E`d",
"`d`E`U`G.a.a.t.#`E`d`d`E.E`1.j.p.n.n`8`d`8.F`G.D`z`6.p.x.x.x`T.x`6`g.p.A`q`8`d`8`r.r`W`6.n`L`E`d",
"`d`8`U`7.a.a`C.n`E`d`d`E`7.i.j.p.n.n`E`d`8.z..`4.j`C.x.n`L.u.n.x`g.t.p.u`2`8`d`8`r.``C`W.n.e`E`d",
"`d`E`U`G.a`N.t.n`E`d`d`E.E`1.j.x`H.u`8`d`8`A.B`z`6.p.n`h`2.k`h.x`6.t.p.A.v`8`d`8`4.``6`W`b`h`E`d",
"`d`8`j.B.a`N`C`H`E`d`d`E`7`n`o.p.n.n`8`d`8.F`1.r`6.x`q`8`d`d`R.j`#`6.p.u.k`8`d`8`4.m.d`C`b`h`E`d",
"`d`E`U.B`i`c`s.n`E`d`d`E`G.i`t.p.n.u`8`d`8.F.B`z`C.x.k`8`d`d`8..`4`t`g`L`2```d`8`4.``g.d.n.e`E`d",
"`d`8.z`G`N`i`s.#`E`d`d`E`G.i`o.x.n.n`8`d`8.F`O`z.d.x`2`8`d`d`8`1`4`6.p.u.v`8`d`8`S.m`W.d`b`h`E`d",
"`d`E.z.B`N`c.p.n`E`d`d`E`G.i`6.p.n.u`8`d`8.F`1.j`g.x`q`8`d`d`8`1`4`6.p.A`2`8`d`8`S`t.d`g.n`h`E`d",
"`d`8.z.B`i`N`s.n`E`d`d`E`G`X`o.x.n.n`8`d`8..`1`#.t`b`2`8`d`d`8`M.r`6.p`L.v`8`d`8.`.m`g.d.n.k`E`d",
"`d`8.z`1`N`c`g.n`E`d`d`E`G`i`6.x.n.u`8`d`8.F`1.j`g.x.v`8`d`d`8`M`4`W.p.A`2`8`d`8.``t.d.d`u`L`E`d",
"`d`8.z`P`N`N`s.n`E`d`d`E...a`6.x.n`u`8`d`8..`X.j.d`b`2`8`d`d`8`X.r`6.p`h.v`8`d``.``6.d.p.n`h`E`d",
"`d`8.E.i`N.D.p.n`E`d`d`E.B`i`6.x.n.u`8`d`8...i`t`C.#`2`8`d`d`8`M.``6`w.e.k```d`8.``W.d`w`u`h`E`d",
"`d`8.F`1`Y`N.x.n`E`d`d`E`1.f`6.x.u`u```d`8`X`X`t.t`b.k`8`d`d`8`X.r`W.x`L`2`8`d`8.m`W.d.d`u`h`E`d",
"`d`8.E`n`N.D.p.n`E`d`d`E`1`i`6.p.x.x.p`8`N.f`4`6.p`H`q`8`d`d`8.f.``g.p.n`u`b`8.m`W.d`T`T.n.k`E`d",
"`8`8`4.j.p.p`2`8`8`8`d`E.i`N`6`C`g`s`t`4`r`4`z`C.p`b.v`8`d`d`8`4`t`W.p`T.x.p.``W.d.p`T`T.A`h`E`d",
"`8`j.F.i.D.D.p.u`2`8`d`E`N`N`6`6`C`6`t`z`4.j`t.p`T.n`2`8`d`d`8`#`6.d.p.p`w.d`W`W`w`T.#.#`L`h`E`d",
"`8`j.E`n`4`Y.x.n.k`8`d`E`6`6`C`g.p.p.t`g.p.p.p.#.n.A.v`8`d`d`8`W.p`w`T.#.#`T.#`T.n`u`u.u.k`q`E`d",
"`8`j`G.a`4.D.x.n`2`8`d`d`8.x`T`H.x`b`H`T`H.#`b.u`L`h`8`d`d`d`d`R`b.n.n`u.n.n`u.n.A.A`h`L.k`8`d`d",
"`8`j.F.i`z.D.x.n.k`8`d`d`E`8`L.u.u`u.u`L.u`L`D`h.k`8`8`d`d`d`d`8`E`h.A`h`h`h`h.k`h`h.k`2`8`8`d`d",
"`8`8`8`8`8`8`8`8`8`8`d`d`d`d`8`8```8```8`8`8`8`8`8`d`d`d`d`d`d`d`d`8```8```8```8```8`````d`d`d`d"
};
