/* XPM */
static const char* PipeWalker_xpm[] = {
"32 32 426 2",
"  	c None",
". 	c #BCC8E1",
"+ 	c #9EB0D5",
"@ 	c #9EAFD4",
"# 	c #99ABCF",
"$ 	c #9BACD1",
"% 	c #9CADD2",
"& 	c #9EB0D2",
"* 	c #9DAFD1",
"= 	c #9FB1D3",
"- 	c #A2B3D6",
"; 	c #A1B3D5",
"> 	c #9EAFD2",
", 	c #A4B6D7",
"' 	c #A5B8D7",
") 	c #AABDDB",
"! 	c #A9BADB",
"~ 	c #A3B4D6",
"{ 	c #A3B5D7",
"] 	c #A3B4D5",
"^ 	c #AEBDDD",
"/ 	c #ADC0DE",
"( 	c #A7BADA",
"_ 	c #A2B4D6",
": 	c #9EB0D3",
"< 	c #A4B5D7",
"[ 	c #A6B8D7",
"} 	c #A0B1D5",
"| 	c #A0B1D6",
"1 	c #6A778F",
"2 	c #728CC1",
"3 	c #708AC0",
"4 	c #6A83B9",
"5 	c #6B84BA",
"6 	c #566482",
"7 	c #4E5768",
"8 	c #4E5767",
"9 	c #4F5768",
"0 	c #505869",
"a 	c #4B5465",
"b 	c #4D5666",
"c 	c #4F5968",
"d 	c #545D6C",
"e 	c #545C6D",
"f 	c #525A6B",
"g 	c #505969",
"h 	c #555D6C",
"i 	c #64738B",
"j 	c #7E99C5",
"k 	c #7993C4",
"l 	c #6E87BB",
"m 	c #7C95C8",
"n 	c #5E6D89",
"o 	c #515A6A",
"p 	c #4D5668",
"q 	c #4F5769",
"r 	c #728BC2",
"s 	c #4A5B80",
"t 	c #9BACD0",
"u 	c #708ABC",
"v 	c #6377A0",
"w 	c #4A4A4A",
"x 	c #6A6A6A",
"y 	c #7B7B7B",
"z 	c #677BA3",
"A 	c #718CBE",
"B 	c #7893C4",
"C 	c #50596A",
"D 	c #C9C9C9",
"E 	c #8F8F8F",
"F 	c #708ABD",
"G 	c #4D5E81",
"H 	c #A1B4D6",
"I 	c #6F8ABC",
"J 	c #677BA2",
"K 	c #55585D",
"L 	c #B6B6B6",
"M 	c #54575D",
"N 	c #778AAE",
"O 	c #8DA5D1",
"P 	c #738DBF",
"Q 	c #546587",
"R 	c #A5B7D7",
"S 	c #6D87BB",
"T 	c #556079",
"U 	c #C3C3C3",
"V 	c #CFCFCF",
"W 	c #9D9D9D",
"X 	c #5E697E",
"Y 	c #7691C0",
"Z 	c #4F5868",
"` 	c #6B84BC",
" .	c #556788",
"..	c #9FB0D4",
"+.	c #6B85BA",
"@.	c #AAAAAA",
"#.	c #747474",
"$.	c #535353",
"%.	c #6C86BC",
"&.	c #4C5566",
"*.	c #6984B8",
"=.	c #495C7E",
"-.	c #A6B6D7",
";.	c #7188BC",
">.	c #56595E",
",.	c #7B8EB0",
"'.	c #728CC0",
").	c #748FC1",
"!.	c #7591C1",
"~.	c #7B97C6",
"{.	c #7690C1",
"].	c #748EC1",
"^.	c #768FC2",
"/.	c #6C86BB",
"(.	c #7089BF",
"_.	c #718ABE",
":.	c #677CA2",
"<.	c #55585E",
"[.	c #6781B8",
"}.	c #4D5667",
"|.	c #6980BA",
"1.	c #495A7E",
"2.	c #B0C1E0",
"3.	c #7E97C7",
"4.	c #7891C3",
"5.	c #6E87BC",
"6.	c #708ABE",
"7.	c #7590C1",
"8.	c #7E99CA",
"9.	c #87A2CE",
"0.	c #819AC9",
"a.	c #7891C6",
"b.	c #7A94C6",
"c.	c #7D98C8",
"d.	c #809ACA",
"e.	c #525A6A",
"f.	c #6C85BD",
"g.	c #526385",
"h.	c #9AADCF",
"i.	c #758FBE",
"j.	c #4C5567",
"k.	c #6F88BE",
"l.	c #718AC0",
"m.	c #6B84B8",
"n.	c #6F88BD",
"o.	c #859FCC",
"p.	c #7F96C7",
"q.	c #7289BF",
"r.	c #718ABF",
"s.	c #6D86BC",
"t.	c #6D86B9",
"u.	c #4D5566",
"v.	c #6881B9",
"w.	c #4A5365",
"x.	c #86A1CF",
"y.	c #596B8B",
"z.	c #98A9CF",
"A.	c #4C5466",
"B.	c #6A83B8",
"C.	c #778FC5",
"D.	c #6E87BE",
"E.	c #748FC2",
"F.	c #6680B8",
"G.	c #6680B5",
"H.	c #7D98C6",
"I.	c #7790C3",
"J.	c #6B83BB",
"K.	c #657EB7",
"L.	c #4A5265",
"M.	c #6780B8",
"N.	c #4B5466",
"O.	c #7A96C5",
"P.	c #596C89",
"Q.	c #9AABD1",
"R.	c #7B94C6",
"S.	c #7B94C5",
"T.	c #90AACF",
"U.	c #7D95C6",
"V.	c #6C85BA",
"W.	c #6680B9",
"X.	c #6982B9",
"Y.	c #627AB4",
"Z.	c #627AB2",
"`.	c #6A81B8",
" +	c #7E94C5",
".+	c #7F98C9",
"++	c #5D73A5",
"@+	c #4E5360",
"#+	c #6F88C0",
"$+	c #4E5769",
"%+	c #7A94C4",
"&+	c #5A6A8A",
"*+	c #7690C3",
"=+	c #4F5869",
"-+	c #7C96C5",
";+	c #7E97C5",
">+	c #546281",
",+	c #4A5264",
"'+	c #495163",
")+	c #485063",
"!+	c #485064",
"~+	c #4F5669",
"{+	c #4D535F",
"]+	c #616161",
"^+	c #969696",
"/+	c #677FB7",
"(+	c #6E88BA",
"_+	c #4B5D7F",
":+	c #A4B6D8",
"<+	c #809BCA",
"[+	c #728DC0",
"}+	c #5F749E",
"|+	c #8B8B8B",
"1+	c #4F5560",
"2+	c #6780B6",
"3+	c #4B5365",
"4+	c #7690C4",
"5+	c #506285",
"6+	c #758FC2",
"7+	c #6B7FA5",
"8+	c #818181",
"9+	c #687A99",
"0+	c #829CCB",
"a+	c #535C6C",
"b+	c #7B95C7",
"c+	c #526485",
"d+	c #A0B2D4",
"e+	c #7993C6",
"f+	c #829DCC",
"g+	c #616D82",
"h+	c #566581",
"i+	c #758FC0",
"j+	c #6D87B9",
"k+	c #758FC1",
"l+	c #506284",
"m+	c #B3C2DF",
"n+	c #869ECB",
"o+	c #505562",
"p+	c #58698E",
"q+	c #7791C4",
"r+	c #7993C3",
"s+	c #4C5D81",
"t+	c #B1C2DE",
"u+	c #859DC9",
"v+	c #7C96C7",
"w+	c #53565C",
"x+	c #596D98",
"y+	c #627BB3",
"z+	c #647DB4",
"A+	c #728BBE",
"B+	c #647DB5",
"C+	c #657EB6",
"D+	c #6A84BC",
"E+	c #6E87BD",
"F+	c #7B96C6",
"G+	c #4D5F82",
"H+	c #A1B3D4",
"I+	c #728BBD",
"J+	c #748DC0",
"K+	c #647EB5",
"L+	c #627AB3",
"M+	c #6079B2",
"N+	c #6578A3",
"O+	c #485164",
"P+	c #495265",
"Q+	c #5F749D",
"R+	c #7691C4",
"S+	c #718BBD",
"T+	c #849DCD",
"U+	c #62738F",
"V+	c #9BACD2",
"W+	c #6B85BB",
"X+	c #555D6B",
"Y+	c #7F97C6",
"Z+	c #535B6C",
"`+	c #6B82AE",
" @	c #4F5460",
".@	c #6177A7",
"+@	c #748DBF",
"@@	c #616F8D",
"#@	c #9BAECF",
"$@	c #5E6F91",
"%@	c #585858",
"&@	c #D1D1D1",
"*@	c #495264",
"=@	c #536385",
"-@	c #AABADB",
";@	c #9AB0D8",
">@	c #515A6B",
",@	c #7A94C5",
"'@	c #7A91C7",
")@	c #BCBCBC",
"!@	c #A2A2A2",
"~@	c #9C9C9C",
"{@	c #829DCA",
"]@	c #535B6B",
"^@	c #91A8D1",
"/@	c #4D5E84",
"(@	c #7C93C2",
"_@	c #87A0CD",
":@	c #585E68",
"<@	c #C2C2C2",
"[@	c #6F89BC",
"}@	c #4D5567",
"|@	c #788FBF",
"1@	c #495B81",
"2@	c #9BABD0",
"3@	c #6D85BC",
"4@	c #4E5666",
"5@	c #738CBF",
"6@	c #4E5669",
"7@	c #4F5867",
"8@	c #8098C9",
"9@	c #768DC4",
"0@	c #526386",
"a@	c #99A9D0",
"b@	c #697FB8",
"c@	c #768FC0",
"d@	c #829BC9",
"e@	c #525B6B",
"f@	c #7087BD",
"g@	c #5D6D8C",
"h@	c #97A7CD",
"i@	c #687EB7",
"j@	c #565E6D",
"k@	c #85A0CC",
"l@	c #505968",
"m@	c #4C5565",
"n@	c #6D88BD",
"o@	c #6A80BA",
"p@	c #4E5D81",
"q@	c #97A7CE",
"r@	c #677DB7",
"s@	c #5E6572",
"t@	c #99B2DB",
"u@	c #4E5867",
"v@	c #728EBE",
"w@	c #6880B8",
"x@	c #6A80B9",
"y@	c #49597F",
"z@	c #A3B3D7",
"A@	c #7289BE",
"B@	c #545B6C",
"C@	c #849CCA",
"D@	c #828282",
"E@	c #5D5D5D",
"F@	c #6D6D6D",
"G@	c #BBBBBB",
"H@	c #545C6B",
"I@	c #666666",
"J@	c #A8A8A8",
"K@	c #6D84B9",
"L@	c #505F82",
"M@	c #A9B9D9",
"N@	c #8097C9",
"O@	c #7F98C8",
"P@	c #5D687E",
"Q@	c #D5D5D5",
"R@	c #6E81A3",
"S@	c #7D8FB0",
"T@	c #5E687F",
"U@	c #829BC6",
"V@	c #62738E",
"W@	c #9FAFD4",
"X@	c #738DBE",
"Y@	c #687CA3",
"Z@	c #535964",
"`@	c #7992C3",
" #	c #89A1CD",
".#	c #575D67",
"+#	c #62759F",
"@#	c #4E5E82",
"##	c #9DADD3",
"$#	c #758EC4",
"%#	c #7792C3",
"&#	c #7892C3",
"*#	c #6E83A8",
"=#	c #595E68",
"-#	c #798EBA",
";#	c #738EBE",
">#	c #879FCD",
",#	c #7C94BA",
"'#	c #535963",
")#	c #738CC2",
"!#	c #4B5C81",
"~#	c #5D6C88",
"{#	c #7994C4",
"]#	c #7C97C6",
"^#	c #7791C5",
"/#	c #5E6C88",
"(#	c #788BAE",
"_#	c #859ECC",
":#	c #7994C5",
"<#	c #8098C8",
"[#	c #748EC0",
"}#	c #768FC3",
"|#	c #677BA4",
"1#	c #4F5969",
"2#	c #525B6C",
"3#	c #63728C",
"4#	c #7E98C8",
"5#	c #4B5D81",
"6#	c #6C7991",
"7#	c #4D5F81",
"8#	c #516384",
"9#	c #4D5E83",
"0#	c #4F6185",
"a#	c #4F6182",
"b#	c #5C708E",
"c#	c #5D708C",
"d#	c #57698A",
"e#	c #556787",
"f#	c #516386",
"g#	c #536487",
"h#	c #546787",
"i#	c #576989",
"j#	c #4D5F84",
"k#	c #47597E",
"l#	c #47597F",
"m#	c #4A5B7F",
"n#	c #5B6C8C",
"o#	c #556889",
"p#	c #5A6B8B",
"q#	c #5F6F8B",
"r#	c #506283",
"s#	c #37445B",
". + @ # $ % & * = - ; > , ' ) ! ~ { ] ^ / ( _ > : & < [ } @ | 1 ",
"% 2 3 4 5 6 7 8 9 0 8 a b c d e f g 8 h i j k l m n o g p q r s ",
"t l u v w x y y y y y y y y y y y y y y x w z A B C y D E w F G ",
"H I J K E L D D D D D D D D D D D D D D L E M N O d y D E w P Q ",
"R S T x U V W E E E E E E E E E E E E W V U x X Y Z y D E w `  .",
"..+.w E V @.#.$.w w w w w w w w w w $.#.@.V E w %.&.y D E w *.=.",
"-.;.w E D y >.,.'.).!.~.{.].^./.(._.:.<.y D E w [.}.y D E w |.1.",
"2.3.w E D y 9 4.5.6.7.8.9.0.a.'.b.c.d.e.y D E w f.q y D E w ^.g.",
"h.i.w E D y j.k.l.5 m.n.o.p.q.r.s./.t.u.y D E w v.w.y D E w x.y.",
"z.+.w E D y A.B.C.l.5 D.E.F.G.H.I.J.K.L.y D E w M.N.y D E w O.P.",
"Q.R.w E D y 8 S.T.U.V.W.X.Y.Z.`. +.+++@+y D E w #+$+y D E w %+&+",
": *+w E D y =+-+;+l 5 >+,+'+)+!+~+}.{+]+^+D E w /+N.y D E w (+_+",
":+].w E D y d <+[+}+w x y y y y y y y ^+U V |+1+2+3+y D E w 4+5+",
": 6+w E D y o c.7+M E L D D D D D D D D V @.8+9+0+a+y D E w b+c+",
"d+e+w E D y o f+g+x U V W E E E E E E E |+8+h+i+j+a y D E w k+l+",
"m+n+w E D y g B w E V @.#.$.w w w w w w o+p+5 q+*+7 y D E w r+s+",
"t+u+w E D y o v+w E D y w+x+y+z+A+B+C+v.D+v.E+*+].7 y D E w F+G+",
"H+I+w E D y 7 J+w E D y L.K+L+M+N+L.O+L.P+Q+R+6+S+7 y D E w T+U+",
"V+W+w E D y X+Y+w E D y Z+v+`+1+$.#.y y #.$. @.@2+w.y D E w +@@@",
"#@-+w E D y h -+w E D y }./.$@%@E L &@&@L E %@p+B+*@y D E w -+=@",
"-@;@w E D y >@,@w E D y q '@w E )@!@|+|+~@L #.w {@]@y D E w ^@/@",
"{ (@w E D y o k w E D y o _@w E D y :@:@#.<@E w [@}@y D E w |@1@",
"2@3@w E D y 4@5@w E D y 6@^.w E D y 7@7@y D E w 8@e.y D E w 9@0@",
"a@b@w E D y 8 c@w E D y A.5 w E D y u.u.y D E w d@e@y D E w f@g@",
"h@i@w E D y j@k@w E D y l@S+w E D y m@m@y D E w n@}.y D E w o@p@",
"q@r@w E D y s@t@w E D y u@v@w E D y w.w.y D E w w@j.y D E w x@y@",
"z@A@w E D y B@C@w D@U E E@w F@G@L #.H@H@I@J@G@F@w E@E U D@w K@L@",
"M@N@w E D y 0 O@P@E@L V E E !@Q@E $.R@S@$.E Q@!@E E V L E@T@U@V@",
"W@s.w E D y 8 X@Y@M #.E D D L E ]+Z@`@ #.#]+E L D D E #.M +#r.@#",
"##$#w E D y g %#&#*#w E@y y #.$.=#-#;#>#,#'#$.#.y y E@w v )#$#!#",
"t 5.Z 6@p 7 ~#{#]#]#^#/#g >@g (# #_#:#<#[#}#|#7 1#2#3#4#(.s.n.5#",
"6#7#8#9#s G+0#a#b#c#d#e#8#f#g#y.h#i#l+j#k#l#m# .n#o#p#q#0@G+r#s#"};
